:SAMPLES-PER-SECOND 30
:FULLY-SPECIFIED
:DEGREES
767
root  17.4193 39.1385 24.3589 -10.8036 -61.5811 7.07177
RightUpLeg  -17.4911 -18.6802 -0.36116
RightLeg  15.7557 2.07872 0.630442
RightFoot  -8.82856 -0.253651 8.81936
RightToes  -8.73116e-010 0 -3.6325e-017
Spine  13.7869 -2.65773 -5.59013
Spine1  3.16354 -3.27043 -0.951694
HEad  -23.3551 -31.3696 6.32424
LeftShoulder1  0.0914303 3.24586 -29.4266
LeftArm  -7.93181 8.88093 -39.3894
LeftForeArm  18.1745 -4.68188 -6.35278
LeftHand  -0.0234303 6.50746 1.08973
RightShoulder  -0.441666 -4.87414 25.33
RightArm  17.6996 -3.3964 50.5463
RightForeArm  9.88998 33.6227 6.91771
RightHand  -0.456053 2.31223 -7.06605
LeftUpLeg  7.82762 8.34353 -2.06591
LeftLeg  8.73015 10.1256 -0.742583
LeftFoot  -13.1669 0.0773379 -0.086528
LeftToes  -5.63919e-011 3.32596e-011 1.92487e-011
768
root  17.0747 39.0663 24.8862 -11.6186 -60.7425 7.55183
RightUpLeg  -16.7424 -18.6424 0.0026902
RightLeg  11.5392 -1.13939 1.0694
RightFoot  -8.4013 -0.269798 8.26695
RightToes  -8.73116e-010 0 -3.6325e-017
Spine  14.0907 -2.85533 -6.23851
Spine1  3.29709 -3.82759 0.383916
HEad  -22.3851 -32.2378 6.19487
LeftShoulder1  0.0358733 3.40494 -30.0171
LeftArm  -7.51947 5.97958 -41.5753
LeftForeArm  19.4519 -5.59479 -6.7706
LeftHand  -0.0129661 6.78054 1.76567
RightShoulder  -0.397215 -4.74365 25.0656
RightArm  18.3509 -3.57798 50.6496
RightForeArm  8.33954 29.9761 6.07035
RightHand  -0.446996 2.96578 -6.43177
LeftUpLeg  9.41226 8.02906 -2.85727
LeftLeg  8.2003 9.81995 -0.712905
LeftFoot  -13.8261 0.0835651 0.0178399
LeftToes  -5.63919e-011 3.32596e-011 1.92487e-011
769
root  16.6476 38.9326 25.4457 -12.4188 -60.3749 8.51153
RightUpLeg  -15.9911 -14.2676 -0.972974
RightLeg  7.54576 -7.79653 2.18299
RightFoot  -8.18946 -0.281606 8.19039
RightToes  -8.73116e-010 0 -3.6325e-017
Spine  13.7325 -2.96344 -6.31491
Spine1  3.45689 -3.94238 0.532086
HEad  -22.7299 -34.0583 7.1669
LeftShoulder1  0.141625 3.10961 -29.8351
LeftArm  -6.909 3.27521 -44.1184
LeftForeArm  20.5249 -6.50787 -7.19938
LeftHand  -0.0286492 6.00443 0.994982
RightShoulder  -0.462648 -4.92551 25.6821
RightArm  19.68 -3.33317 50.212
RightForeArm  5.49034 25.4285 5.16895
RightHand  -0.455805 2.78865 -6.68143
LeftUpLeg  10.3764 7.66933 -3.97834
LeftLeg  8.29337 10.2359 -0.438587
LeftFoot  -14.7166 0.0964138 0.279346
LeftToes  -5.63919e-011 3.32596e-011 1.92487e-011
770
root  16.0709 38.7871 26.046 -13.2496 -60.392 8.92527
RightUpLeg  -14.2305 -10.0749 -1.79453
RightLeg  3.5057 -13.6871 3.69088
RightFoot  -8.10433 -0.297752 8.40724
RightToes  -8.73116e-010 0 -3.6325e-017
Spine  13.4152 -3.0106 -6.173
Spine1  3.91317 -4.05577 0.801867
HEad  -23.7345 -33.8525 6.70429
LeftShoulder1  0.190839 2.96737 -29.4322
LeftArm  -5.69578 1.25371 -46.8558
LeftForeArm  20.8273 -7.89033 -7.71044
LeftHand  -0.0323755 4.76024 1.84269
RightShoulder  -0.445366 -4.86554 25.8185
RightArm  20.0156 -3.51648 50.0441
RightForeArm  3.7976 20.3239 4.86571
RightHand  -0.385371 2.42969 -5.93525
LeftUpLeg  12.3014 7.64271 -4.53361
LeftLeg  8.12029 10.7366 -0.229314
LeftFoot  -15.6129 0.106276 0.338676
LeftToes  -5.63919e-011 3.32596e-011 1.92487e-011
771
root  15.456 38.666 26.6527 -13.6842 -59.9469 9.12945
RightUpLeg  -13.043 -8.00391 -1.98111
RightLeg  0.946317 -17.5687 4.48493
RightFoot  -6.81208 -0.304014 6.7424
RightToes  -8.73116e-010 0 -3.6325e-017
Spine  13.1998 -3.35629 -6.01699
Spine1  4.18958 -4.55649 1.45443
HEad  -23.6934 -35.6662 8.15471
LeftShoulder1  0.151679 3.07713 -29.4264
LeftArm  -2.7573 -0.382734 -48.8486
LeftForeArm  20.7208 -10.3441 -8.08965
LeftHand  -0.0350189 3.97256 1.1409
RightShoulder  -0.413687 -4.75756 26.0501
RightArm  16.554 -3.60245 49.4341
RightForeArm  5.7637 14.7207 5.98025
RightHand  -0.342495 1.44011 -5.96077
LeftUpLeg  14.2333 7.65528 -4.82414
LeftLeg  7.63512 10.5091 -0.398845
LeftFoot  -16.4247 0.114257 0.353762
LeftToes  -5.63919e-011 3.32596e-011 1.92487e-011
772
root  14.8166 38.6456 27.2617 -12.6647 -59.3626 8.10779
RightUpLeg  -12.9399 -7.39796 -1.26193
RightLeg  0.825861 -18.7766 4.33638
RightFoot  -2.40244 -0.0236003 0.499774
RightToes  -8.73116e-010 0 -3.6325e-017
Spine  13.005 -3.81012 -5.3324
Spine1  4.21053 -5.31818 3.00111
HEad  -27.1221 -37.748 9.00757
LeftShoulder1  0.134198 3.12926 -29.6995
LeftArm  1.2692 -1.57203 -50.7253
LeftForeArm  19.3455 -12.9766 -7.9074
LeftHand  -0.0370612 3.85727 1.28196
RightShoulder  -0.394245 -4.70027 25.9735
RightArm  11.8091 -4.36274 48.6119
RightForeArm  9.24344 9.83526 6.42765
RightHand  -0.327067 1.82123 -5.44537
LeftUpLeg  16.0696 7.35614 -4.6287
LeftLeg  6.44748 10.0772 -0.448235
LeftFoot  -16.6331 0.112135 0.266634
LeftToes  -5.63919e-011 3.32596e-011 1.92487e-011
